HIERARCHY
ROOT RootJoint
{
    OFFSET   0.000000   0.000000   0.000000
    CHANNELS 6 Xposition Yposition Zposition Xrotation Yrotation Zrotation
    JOINT pelvis_lowerback
    {
        OFFSET   0.000000   0.093605   0.000000
        CHANNELS 3 Xrotation Yrotation Zrotation
        JOINT lowerback_torso
        {
            OFFSET   0.000000   0.100000   0.000000
            CHANNELS 3 Xrotation Yrotation Zrotation
            JOINT torso_head
            {
                OFFSET   0.000000   0.282350   0.000000
                CHANNELS 3 Xrotation Yrotation Zrotation
                End Site
                {
                    OFFSET   0.000000   0.192650   0.000000
                }
            }
            JOINT rTorso_Clavicle
            {
                OFFSET  -0.001000   0.157500   0.000000
                CHANNELS 3 Xrotation Yrotation Zrotation
                JOINT rShoulder
                {
                    OFFSET  -0.117647   0.000000   0.000000
                    CHANNELS 3 Xrotation Yrotation Zrotation
                    JOINT rElbow
                    {
                        OFFSET  -0.245000   0.000000   0.000000
                        CHANNELS 3 Xrotation Yrotation Zrotation
                        JOINT rWrist
                        {
                            OFFSET  -0.240000   0.000000   0.000000
                            CHANNELS 3 Xrotation Yrotation Zrotation
                            End Site
                            {
                                OFFSET  -0.116353  -0.002500   0.000000
                            }
                        }
                    }
                }
            }
            JOINT lTorso_Clavicle
            {
                OFFSET   0.001000   0.157500   0.000000
                CHANNELS 3 Xrotation Yrotation Zrotation
                JOINT lShoulder
                {
                    OFFSET   0.117647   0.000000   0.000000
                    CHANNELS 3 Xrotation Yrotation Zrotation
                    JOINT lElbow
                    {
                        OFFSET   0.245000   0.000000   0.000000
                        CHANNELS 3 Xrotation Yrotation Zrotation
                        JOINT lWrist
                        {
                            OFFSET   0.240000   0.000000   0.000000
                            CHANNELS 3 Xrotation Yrotation Zrotation
                            End Site
                            {
                                OFFSET   0.116353  -0.002500   0.000000
                            }
                        }
                    }
                }
            }
        }
    }
    JOINT rHip
    {
        OFFSET  -0.100000  -0.051395   0.000000
        CHANNELS 3 Xrotation Yrotation Zrotation
        JOINT rKnee
        {
            OFFSET   0.000000  -0.410000   0.000000
            CHANNELS 3 Xrotation Yrotation Zrotation
            JOINT rAnkle
            {
                OFFSET   0.000000  -0.390000   0.000000
                CHANNELS 3 Xrotation Yrotation Zrotation
                JOINT rToeJoint
                {
                    OFFSET   0.000000  -0.050000   0.130000
                    CHANNELS 3 Xrotation Yrotation Zrotation
                    End Site
                    {
                        OFFSET  -0.010000   0.002000   0.060000
                    }
                }
            }
        }
    }
    JOINT lHip
    {
        OFFSET   0.100000  -0.051395   0.000000
        CHANNELS 3 Xrotation Yrotation Zrotation
        JOINT lKnee
        {
            OFFSET   0.000000  -0.410000   0.000000
            CHANNELS 3 Xrotation Yrotation Zrotation
            JOINT lAnkle
            {
                OFFSET   0.000000  -0.390000   0.000000
                CHANNELS 3 Xrotation Yrotation Zrotation
                JOINT lToeJoint
                {
                    OFFSET   0.000000  -0.050000   0.130000
                    CHANNELS 3 Xrotation Yrotation Zrotation
                    End Site
                    {
                        OFFSET   0.010000   0.002000   0.060000
                    }
                }
            }
        }
    }
}
MOTION
Frames: 10
Frame Time:   0.008333
 -2.392823   0.911901   3.848202  28.379993  -9.260807   7.415569   7.979862   5.469345  -7.448639  -3.473078  -2.128266  -7.368701   0.105017  -2.612148  -3.084204  -2.023405  13.991818 -22.887428 -16.334887  21.734701  15.780380   0.010884  15.689985   0.011464   2.460795   0.439139  -0.846764  -6.240615  -9.116559  15.594414 -10.474412  -9.825221 -10.408403   0.031527 -12.685718  -0.007886   2.680385  -4.612184   4.122438 -21.081684 -18.747670  -1.127795  28.358040  -0.000831   0.000748  -2.778008 -20.519427   8.079031 -15.881087   0.000875  -0.001269 -34.702253  -1.956985  -4.996776  -0.001140   0.000165  -0.000379   9.671731   8.346683   2.112739  -5.215325  -0.000019  -0.001430
 -2.393485   0.911779   3.846971  28.261237  -9.149058   7.388404   8.051656   5.520236  -7.397271  -3.447639  -2.073066  -7.417024   0.035194  -2.815308  -3.092995  -1.981228  15.019267 -22.540861 -16.629384  22.679391  16.506233   0.013731  16.323505   0.011374   2.462808   0.255856  -1.021049  -6.171182  -9.940226  15.027413 -10.520005 -10.572726 -11.319272   0.036767 -13.566732  -0.006725   2.622306  -4.289590   4.603842 -21.070022 -18.910685  -1.048777  28.472789  -0.000811   0.000630  -3.176377 -20.836745   7.769310 -15.171486   0.001374  -0.002465 -34.667565  -1.837867  -4.992111  -0.000898   0.000132  -0.000303   9.771347   8.091983   2.078461  -5.229915  -0.000015  -0.001141
 -2.394149   0.911788   3.845784  28.117785  -9.067371   7.353017   8.111245   5.580505  -7.336227  -3.404177  -2.015858  -7.459924  -0.055070  -3.004385  -3.093022  -1.896545  16.074178 -22.181026 -16.935573  23.633359  17.262200   0.016255  16.948441   0.011121   2.464826   0.220023  -1.106632  -6.075292 -10.801383  14.408470 -10.578989 -11.339230 -12.268646   0.041298 -14.421036  -0.005734   2.573748  -4.116196   4.923173 -21.037703 -19.068751  -0.964207  28.592138  -0.000806   0.000517  -3.535814 -21.146155   7.474981 -14.344564   0.001819  -0.003816 -34.603402  -1.720912  -4.967384  -0.000707   0.000105  -0.000242   9.916552   7.851186   2.034160  -5.316807  -0.000011  -0.000887
 -2.394823   0.911862   3.844606  27.966034  -9.019749   7.321271   8.171714   5.639559  -7.282711  -3.343460  -1.960539  -7.506276  -0.154624  -3.179679  -3.087779  -1.791878  17.119854 -21.828139 -17.247192  24.566768  18.016418   0.018141  17.550720   0.010544   2.466812   0.300418  -1.118271  -5.972227 -11.660870  13.782459 -10.649422 -12.092369 -13.207534   0.044486 -15.234036  -0.004786   2.532670  -4.048548   5.118759 -21.001729 -19.217908  -0.881518  28.715852  -0.000814   0.000403  -3.865457 -21.436228   7.198108 -13.491300   0.002063  -0.005068 -34.526678  -1.613898  -4.924024  -0.000556   0.000084  -0.000193  10.079246   7.621721   1.979228  -5.431732  -0.000010  -0.000648
 -2.395500   0.911961   3.843425  27.816232  -9.004542   7.297298   8.238093   5.693103  -7.241638  -3.269244  -1.909191  -7.559122  -0.254922  -3.342809  -3.080617  -1.681596  18.133132 -21.493407 -17.559529  25.463466  18.750966   0.019329  18.124737   0.009687   2.469315   0.451753  -1.088376  -5.871181 -12.497284  13.172364 -10.728877 -12.817718 -14.114505   0.046281 -16.002111  -0.003852   2.497147  -4.043321   5.241097 -20.970437 -19.358957  -0.806356  28.835467  -0.000819   0.000285  -4.171704 -21.709439   6.936915 -12.665953   0.002115  -0.006130 -34.447989  -1.516564  -4.864803  -0.000437   0.000067  -0.000155  10.244346   7.402570   1.915935  -5.551665  -0.000010  -0.000424
 -2.396172   0.912066   3.842238  27.673657  -9.017337   7.281489   8.311503   5.738652  -7.213480  -3.185346  -1.863665  -7.618431  -0.351343  -3.494927  -3.073130  -1.573971  19.100987 -21.181691 -17.869073  26.314768  19.455949   0.019873  18.667802   0.008648   2.472384   0.642099  -1.040127  -5.776537 -13.299611  12.589177 -10.815161 -13.508268 -14.979496   0.046836 -16.724622  -0.002948   2.465676  -4.073869   5.322347 -20.946966 -19.491632  -0.739908  28.947241  -0.000813   0.000171  -4.458368 -21.964748   6.690915 -11.892116   0.002015  -0.006927 -34.373045  -1.427600  -4.792735  -0.000343   0.000054  -0.000124  10.404195   7.193833   1.846751  -5.665269  -0.000011  -0.000226
 -2.396833   0.912167   3.841047  27.540528  -9.053614   7.273049   8.391161   5.774969  -7.197107  -3.095099  -1.825242  -7.683107  -0.441657  -3.636931  -3.066073  -1.473349  20.016573 -20.894150 -18.173085  27.116492  20.126496   0.019877  19.178968   0.007529   2.475908   0.850691  -0.987130  -5.690115 -14.062397  12.037582 -10.906297 -14.160892 -15.798402   0.046373 -17.402391  -0.002105   2.437184  -4.124231   5.380930 -20.931914 -19.615868  -0.681860  29.049589  -0.000795   0.000067  -4.727843 -22.202156   6.459505 -11.179088   0.001814  -0.007444 -34.304362  -1.345611  -4.710595  -0.000270   0.000043  -0.000099  10.555151   6.995826   1.773767  -5.767502  -0.000013  -0.000062
 -2.397339   0.912366   3.840010  27.405907  -9.064826   7.250389   8.375770   5.796708  -7.137250  -2.975509  -1.733909  -7.708103  -0.521879  -3.810867  -3.051872  -1.384071  20.907511 -20.667632 -18.310028  27.901915  20.896201   0.023321  20.016028   0.006366   2.488315   0.744826  -1.081754  -5.576968 -14.823589  11.564452 -10.920690 -14.924380 -16.973237   0.050243 -18.251224  -0.000265   2.376069  -3.875054   5.673007 -20.940137 -19.921568  -0.677387  29.139774  -0.000787  -0.000132  -5.010048 -22.508050   6.215147 -10.266982   0.001838  -0.010181 -34.226473  -1.169507  -4.659527  -0.000212   0.000034  -0.000079  10.755834   6.808284   1.737947  -5.963295  -0.000011  -0.000036
 -2.397787   0.912633   3.839026  27.251263  -9.095060   7.217863   8.350438   5.821398  -7.063388  -2.848025  -1.648280  -7.723757  -0.611150  -3.971694  -3.027741  -1.269293  21.800961 -20.441628 -18.464651  28.686900  21.670721   0.025873  20.825880   0.005407   2.503966   0.782878  -1.108577  -5.444646 -15.600187  11.055487 -10.953132 -15.686982 -18.154441   0.053117 -19.067267   0.001241   2.326226  -3.739069   5.815969 -20.945525 -20.221628  -0.689766  29.239741  -0.000786  -0.000326  -5.265419 -22.807255   5.982518  -9.331584   0.001839  -0.012566 -34.123331  -0.991366  -4.599983  -0.000166   0.000027  -0.000063  10.970283   6.642978   1.705213  -6.187664  -0.000008  -0.000039
 -2.398196   0.912924   3.838061  27.087243  -9.142328   7.178433   8.325429   5.840784  -6.985334  -2.715769  -1.573216  -7.737623  -0.703755  -4.121073  -2.999629  -1.145291  22.675057 -20.224507 -18.631035  29.449566  22.426959   0.027386  21.595366   0.004500   2.519604   0.907969  -1.088412  -5.310094 -16.367782  10.543485 -11.002131 -16.427074 -19.301867   0.054599 -19.840385   0.002435   2.283977  -3.680367   5.860088 -20.951705 -20.504278  -0.716691  29.343758  -0.000775  -0.000495  -5.499797 -23.093841   5.761966  -8.416514   0.001792  -0.014321 -34.010132  -0.814364  -4.525529   0.005126   0.000020  -0.000043  11.190629   6.488930   1.617514  -6.425287  -0.000111  -0.000055
